<svg xmlns="http://www.w3.org/2000/svg" viewBox="0 0 64 64">
  <!-- Body -->
  <ellipse cx="32" cy="50" rx="20" ry="13" fill="#f0ede6" stroke="#444" stroke-width="2"/>
  <!-- Neck -->
  <rect x="27" y="22" width="10" height="22" rx="5" fill="#f0ede6" stroke="#444" stroke-width="2"/>
  <!-- Head -->
  <ellipse cx="32" cy="18" rx="12" ry="11" fill="#f0ede6" stroke="#444" stroke-width="2"/>
  <!-- Eyes -->
  <circle cx="25" cy="16" r="2.5" fill="#222"/>
  <circle cx="39" cy="16" r="2.5" fill="#222"/>
  <circle cx="24.2" cy="15.2" r="0.8" fill="#fff"/>
  <circle cx="38.2" cy="15.2" r="0.8" fill="#fff"/>
  <!-- Beak -->
  <path d="M26 22 L32 28 L38 22 Z" fill="#e8941a" stroke="#c47a10" stroke-width="1.5" stroke-linejoin="round"/>
  <!-- Nostrils -->
  <circle cx="30" cy="23" r="0.7" fill="#c47a10"/>
  <circle cx="34" cy="23" r="0.7" fill="#c47a10"/>
  <!-- Wings -->
  <path d="M12 48 Q18 38 27 44" fill="#e0ddd4" stroke="#444" stroke-width="1.5"/>
  <path d="M52 48 Q46 38 37 44" fill="#e0ddd4" stroke="#444" stroke-width="1.5"/>
  <!-- Feet -->
  <path d="M24 61 L20 64 M24 61 L24 64 M24 61 L28 64" stroke="#e8941a" stroke-width="2.5" stroke-linecap="round" fill="none"/>
  <path d="M40 61 L36 64 M40 61 L40 64 M40 61 L44 64" stroke="#e8941a" stroke-width="2.5" stroke-linecap="round" fill="none"/>
</svg>
